{
  "accessors": [
    {
      "bufferView": 2,
      "componentType": 5126,
      "count": 44098,
      "max": [
        0.9872310161590576,
        0.9975767135620117,
        0.9872307181358337
      ],
      "min": [
        -0.9872304201126099,
        -0.9975767135620117,
        -0.9872304201126099
      ],
      "type": "VEC3"
    },
    {
      "bufferView": 2,
      "byteOffset": 529176,
      "componentType": 5126,
      "count": 44098,
      "max": [
        0.9993996620178223,
        0.9969547390937805,
        0.9993998408317566
      ],
      "min": [
        -0.9993996620178223,
        -0.9969545602798462,
        -0.9993999004364014
      ],
      "type": "VEC3"
    },
    {
      "bufferView": 1,
      "componentType": 5126,
      "count": 44098,
      "max": [
        1.000000238418579,
        1.0
      ],
      "min": [
        0.0,
        -1.1920928955078125e-07
      ],
      "type": "VEC2"
    },
    {
      "bufferView": 0,
      "componentType": 5125,
      "count": 47616,
      "type": "SCALAR"
    },
    {
      "bufferView": 2,
      "byteOffset": 1058352,
      "componentType": 5126,
      "count": 44098,
      "max": [
        0.9872310161590576,
        0.9975767135620117,
        0.9872307181358337
      ],
      "min": [
        -0.9872304201126099,
        -0.9975767135620117,
        -0.9872304201126099
      ],
      "type": "VEC3"
    },
    {
      "bufferView": 2,
      "byteOffset": 1587528,
      "componentType": 5126,
      "count": 44098,
      "max": [
        0.9993996620178223,
        0.9969547390937805,
        0.9993998408317566
      ],
      "min": [
        -0.9993996620178223,
        -0.9969545602798462,
        -0.9993999004364014
      ],
      "type": "VEC3"
    },
    {
      "bufferView": 1,
      "byteOffset": 352784,
      "componentType": 5126,
      "count": 44098,
      "max": [
        1.000000238418579,
        1.0
      ],
      "min": [
        0.0,
        -1.1920928955078125e-07
      ],
      "type": "VEC2"
    },
    {
      "bufferView": 0,
      "byteOffset": 190464,
      "componentType": 5125,
      "count": 47616,
      "type": "SCALAR"
    },
    {
      "bufferView": 2,
      "byteOffset": 2116704,
      "componentType": 5126,
      "count": 65532,
      "max": [
        0.9654398560523987,
        0.9856524467468262,
        0.9531890749931335
      ],
      "min": [
        -0.9424809813499451,
        -0.9990301132202148,
        -0.9708555340766907
      ],
      "type": "VEC3"
    },
    {
      "bufferView": 2,
      "byteOffset": 2903088,
      "componentType": 5126,
      "count": 65532,
      "max": [
        0.9999849796295166,
        1.0,
        0.9994503259658813
      ],
      "min": [
        -0.9973950386047363,
        -0.9999799728393555,
        -0.9999805688858032
      ],
      "type": "VEC3"
    },
    {
      "bufferView": 1,
      "byteOffset": 705568,
      "componentType": 5126,
      "count": 65532,
      "max": [
        1.0000001192092896,
        1.0
      ],
      "min": [
        0.0,
        -1.1920928955078125e-07
      ],
      "type": "VEC2"
    },
    {
      "bufferView": 1,
      "byteOffset": 1229824,
      "componentType": 5126,
      "count": 65532,
      "max": [
        1.0000001192092896,
        1.0
      ],
      "min": [
        0.0,
        -1.1920928955078125e-07
      ],
      "type": "VEC2"
    },
    {
      "bufferView": 1,
      "byteOffset": 1754080,
      "componentType": 5126,
      "count": 65532,
      "max": [
        1.0000001192092896,
        1.0
      ],
      "min": [
        0.0,
        -1.1920928955078125e-07
      ],
      "type": "VEC2"
    },
    {
      "bufferView": 0,
      "byteOffset": 380928,
      "componentType": 5125,
      "count": 331401,
      "type": "SCALAR"
    },
    {
      "bufferView": 2,
      "byteOffset": 3689472,
      "componentType": 5126,
      "count": 65532,
      "max": [
        0.9616503119468689,
        0.9856524467468262,
        0.9778739809989929
      ],
      "min": [
        -0.960597574710846,
        -0.9983155727386475,
        -0.958279013633728
      ],
      "type": "VEC3"
    },
    {
      "bufferView": 2,
      "byteOffset": 4475856,
      "componentType": 5126,
      "count": 65532,
      "max": [
        0.9999819993972778,
        1.0,
        0.9999492168426514
      ],
      "min": [
        -0.9980220198631287,
        -0.9999748468399048,
        -0.9990275502204895
      ],
      "type": "VEC3"
    },
    {
      "bufferView": 1,
      "byteOffset": 2278336,
      "componentType": 5126,
      "count": 65532,
      "max": [
        1.0000001192092896,
        1.0
      ],
      "min": [
        0.0,
        -1.1920928955078125e-07
      ],
      "type": "VEC2"
    },
    {
      "bufferView": 1,
      "byteOffset": 2802592,
      "componentType": 5126,
      "count": 65532,
      "max": [
        1.0000001192092896,
        1.0
      ],
      "min": [
        0.0,
        -1.1920928955078125e-07
      ],
      "type": "VEC2"
    },
    {
      "bufferView": 1,
      "byteOffset": 3326848,
      "componentType": 5126,
      "count": 65532,
      "max": [
        1.0000001192092896,
        1.0
      ],
      "min": [
        0.0,
        -1.1920928955078125e-07
      ],
      "type": "VEC2"
    },
    {
      "bufferView": 0,
      "byteOffset": 1706532,
      "componentType": 5125,
      "count": 334764,
      "type": "SCALAR"
    },
    {
      "bufferView": 2,
      "byteOffset": 5262240,
      "componentType": 5126,
      "count": 65532,
      "max": [
        0.9621952772140503,
        0.9856524467468262,
        0.9599098563194275
      ],
      "min": [
        -0.9621948003768921,
        -0.9990301132202148,
        -0.9474167227745056
      ],
      "type": "VEC3"
    },
    {
      "bufferView": 2,
      "byteOffset": 6048624,
      "componentType": 5126,
      "count": 65532,
      "max": [
        0.999941349029541,
        1.0,
        0.9983955025672913
      ],
      "min": [
        -0.9999712705612183,
        -1.0,
        -0.9997469186782837
      ],
      "type": "VEC3"
    },
    {
      "bufferView": 1,
      "byteOffset": 3851104,
      "componentType": 5126,
      "count": 65532,
      "max": [
        1.0000001192092896,
        1.0
      ],
      "min": [
        0.0,
        -1.1920928955078125e-07
      ],
      "type": "VEC2"
    },
    {
      "bufferView": 1,
      "byteOffset": 4375360,
      "componentType": 5126,
      "count": 65532,
      "max": [
        1.0000001192092896,
        1.0
      ],
      "min": [
        0.0,
        -1.1920928955078125e-07
      ],
      "type": "VEC2"
    },
    {
      "bufferView": 1,
      "byteOffset": 4899616,
      "componentType": 5126,
      "count": 65532,
      "max": [
        1.0000001192092896,
        1.0
      ],
      "min": [
        0.0,
        -1.1920928955078125e-07
      ],
      "type": "VEC2"
    },
    {
      "bufferView": 0,
      "byteOffset": 3045588,
      "componentType": 5125,
      "count": 335451,
      "type": "SCALAR"
    },
    {
      "bufferView": 2,
      "byteOffset": 6835008,
      "componentType": 5126,
      "count": 65532,
      "max": [
        0.9579813480377197,
        0.9856524467468262,
        0.9609249234199524
      ],
      "min": [
        -0.9569429755210876,
        -0.9989659190177917,
        -0.9615048766136169
      ],
      "type": "VEC3"
    },
    {
      "bufferView": 2,
      "byteOffset": 7621392,
      "componentType": 5126,
      "count": 65532,
      "max": [
        0.999941349029541,
        1.0,
        0.9994503259658813
      ],
      "min": [
        -0.9973950386047363,
        -0.999968409538269,
        -0.9993034601211548
      ],
      "type": "VEC3"
    },
    {
      "bufferView": 1,
      "byteOffset": 5423872,
      "componentType": 5126,
      "count": 65532,
      "max": [
        0.9990235567092896,
        1.0
      ],
      "min": [
        2.980232594040899e-08,
        -1.1920928955078125e-07
      ],
      "type": "VEC2"
    },
    {
      "bufferView": 1,
      "byteOffset": 5948128,
      "componentType": 5126,
      "count": 65532,
      "max": [
        0.9990235567092896,
        1.0
      ],
      "min": [
        2.980232594040899e-08,
        -1.1920928955078125e-07
      ],
      "type": "VEC2"
    },
    {
      "bufferView": 1,
      "byteOffset": 6472384,
      "componentType": 5126,
      "count": 65532,
      "max": [
        0.9990235567092896,
        1.0
      ],
      "min": [
        2.980232594040899e-08,
        -1.1920928955078125e-07
      ],
      "type": "VEC2"
    },
    {
      "bufferView": 0,
      "byteOffset": 4387392,
      "componentType": 5125,
      "count": 313320,
      "type": "SCALAR"
    },
    {
      "bufferView": 2,
      "byteOffset": 8407776,
      "componentType": 5126,
      "count": 45742,
      "max": [
        0.9654398560523987,
        0.9856524467468262,
        0.9733255505561829
      ],
      "min": [
        -0.9621948003768921,
        -0.9991442561149597,
        -0.9621947407722473
      ],
      "type": "VEC3"
    },
    {
      "bufferView": 2,
      "byteOffset": 8956680,
      "componentType": 5126,
      "count": 45742,
      "max": [
        0.9998792409896851,
        1.0,
        0.9999079704284668
      ],
      "min": [
        -0.9999712705612183,
        -0.9999942779541016,
        -0.9999805688858032
      ],
      "type": "VEC3"
    },
    {
      "bufferView": 1,
      "byteOffset": 6996640,
      "componentType": 5126,
      "count": 45742,
      "max": [
        1.0000001192092896,
        1.0
      ],
      "min": [
        0.0,
        -1.1920928955078125e-07
      ],
      "type": "VEC2"
    },
    {
      "bufferView": 1,
      "byteOffset": 7362576,
      "componentType": 5126,
      "count": 45742,
      "max": [
        1.0000001192092896,
        1.0
      ],
      "min": [
        0.0,
        -1.1920928955078125e-07
      ],
      "type": "VEC2"
    },
    {
      "bufferView": 1,
      "byteOffset": 7728512,
      "componentType": 5126,
      "count": 45742,
      "max": [
        1.0000001192092896,
        1.0
      ],
      "min": [
        0.0,
        -1.1920928955078125e-07
      ],
      "type": "VEC2"
    },
    {
      "bufferView": 0,
      "byteOffset": 5640672,
      "componentType": 5125,
      "count": 138006,
      "type": "SCALAR"
    },
    {
      "bufferView": 3,
      "componentType": 5126,
      "count": 360,
      "max": [
        15.0
      ],
      "min": [
        0.0416666679084301
      ],
      "type": "SCALAR"
    },
    {
      "bufferView": 4,
      "componentType": 5126,
      "count": 360,
      "max": [
        0.0,
        0.9999932050704956,
        -0.0,
        1.0
      ],
      "min": [
        0.0,
        -0.9999871253967285,
        -0.0,
        0.0036835158243775368
      ],
      "type": "VEC4"
    }
  ],
  "animations": [
    {
      "channels": [
        {
          "sampler": 0,
          "target": {
            "node": 5,
            "path": "rotation"
          }
        }
      ],
      "name": "CloudsAction",
      "samplers": [
        {
          "input": 38,
          "interpolation": "LINEAR",
          "output": 39
        }
      ]
    }
  ],
  "asset": {
    "extras": {
      "author": "makarpronin90 (https://sketchfab.com/makarpronin90)",
      "license": "CC-BY-4.0 (http://creativecommons.org/licenses/by/4.0/)",
      "source": "https://sketchfab.com/3d-models/planet-earth-fa0665fff0b045f3bf2d447fa66d37e4",
      "title": "Planet Earth"
    },
    "generator": "Sketchfab-12.66.0",
    "version": "2.0"
  },
  "bufferViews": [
    {
      "buffer": 0,
      "byteLength": 6192696,
      "name": "floatBufferViews",
      "target": 34963
    },
    {
      "buffer": 0,
      "byteLength": 8094448,
      "byteOffset": 6192696,
      "byteStride": 8,
      "name": "floatBufferViews",
      "target": 34962
    },
    {
      "buffer": 0,
      "byteLength": 9505584,
      "byteOffset": 14287144,
      "byteStride": 12,
      "name": "floatBufferViews",
      "target": 34962
    },
    {
      "buffer": 0,
      "byteLength": 1440,
      "byteOffset": 23792728,
      "name": "floatBufferViews"
    },
    {
      "buffer": 0,
      "byteLength": 5760,
      "byteOffset": 23794168,
      "byteStride": 16,
      "name": "floatBufferViews"
    }
  ],
  "buffers": [
    {
      "byteLength": 23799928,
      "uri": "scene.bin"
    }
  ],
  "images": [
    {
      "uri": "textures/Clouds_baseColor.png"
    },
    {
      "uri": "textures/EarthMat_baseColor.jpeg"
    },
    {
      "uri": "textures/EarthMat_metallicRoughness.png"
    }
  ],
  "materials": [
    {
      "alphaMode": "BLEND",
      "doubleSided": true,
      "emissiveFactor": [
        0.0,
        0.01607879999999998,
        0.22154799999999988
      ],
      "name": "Atmosphere",
      "pbrMetallicRoughness": {
        "baseColorFactor": [
          0.03930420000000013,
          0.0,
          1.0,
          0.1
        ],
        "metallicFactor": 0.0,
        "roughnessFactor": 0.5
      }
    },
    {
      "alphaCutoff": 0.0001,
      "alphaMode": "MASK",
      "doubleSided": true,
      "emissiveFactor": [
        0.04518,
        0.04518,
        0.04518
      ],
      "name": "Clouds",
      "pbrMetallicRoughness": {
        "baseColorTexture": {
          "index": 0
        },
        "metallicFactor": 0.0,
        "roughnessFactor": 0.3
      }
    },
    {
      "doubleSided": true,
      "name": "EarthMat",
      "pbrMetallicRoughness": {
        "baseColorTexture": {
          "index": 1
        },
        "metallicFactor": 0.0,
        "metallicRoughnessTexture": {
          "index": 2,
          "texCoord": 1
        }
      }
    }
  ],
  "meshes": [
    {
      "name": "Object_0",
      "primitives": [
        {
          "attributes": {
            "NORMAL": 1,
            "POSITION": 0,
            "TEXCOORD_0": 2
          },
          "indices": 3,
          "material": 0,
          "mode": 4
        }
      ]
    },
    {
      "name": "Object_1",
      "primitives": [
        {
          "attributes": {
            "NORMAL": 5,
            "POSITION": 4,
            "TEXCOORD_0": 6
          },
          "indices": 7,
          "material": 1,
          "mode": 4
        }
      ]
    },
    {
      "name": "Object_2",
      "primitives": [
        {
          "attributes": {
            "NORMAL": 9,
            "POSITION": 8,
            "TEXCOORD_0": 10,
            "TEXCOORD_1": 11,
            "TEXCOORD_2": 12
          },
          "indices": 13,
          "material": 2,
          "mode": 4
        }
      ]
    },
    {
      "name": "Object_3",
      "primitives": [
        {
          "attributes": {
            "NORMAL": 15,
            "POSITION": 14,
            "TEXCOORD_0": 16,
            "TEXCOORD_1": 17,
            "TEXCOORD_2": 18
          },
          "indices": 19,
          "material": 2,
          "mode": 4
        }
      ]
    },
    {
      "name": "Object_4",
      "primitives": [
        {
          "attributes": {
            "NORMAL": 21,
            "POSITION": 20,
            "TEXCOORD_0": 22,
            "TEXCOORD_1": 23,
            "TEXCOORD_2": 24
          },
          "indices": 25,
          "material": 2,
          "mode": 4
        }
      ]
    },
    {
      "name": "Object_5",
      "primitives": [
        {
          "attributes": {
            "NORMAL": 27,
            "POSITION": 26,
            "TEXCOORD_0": 28,
            "TEXCOORD_1": 29,
            "TEXCOORD_2": 30
          },
          "indices": 31,
          "material": 2,
          "mode": 4
        }
      ]
    },
    {
      "name": "Object_6",
      "primitives": [
        {
          "attributes": {
            "NORMAL": 33,
            "POSITION": 32,
            "TEXCOORD_0": 34,
            "TEXCOORD_1": 35,
            "TEXCOORD_2": 36
          },
          "indices": 37,
          "material": 2,
          "mode": 4
        }
      ]
    }
  ],
  "nodes": [
    {
      "children": [
        1
      ],
      "matrix": [
        1.0,
        0.0,
        0.0,
        0.0,
        0.0,
        2.220446049250313e-16,
        -1.0,
        0.0,
        0.0,
        1.0,
        2.220446049250313e-16,
        0.0,
        0.0,
        0.0,
        0.0,
        1.0
      ],
      "name": "Sketchfab_model"
    },
    {
      "children": [
        2
      ],
      "name": "root"
    },
    {
      "children": [
        3,
        5,
        7
      ],
      "matrix": [
        1.0,
        0.0,
        0.0,
        0.0,
        0.0,
        2.220446049250313e-16,
        1.0,
        0.0,
        0.0,
        -1.0,
        2.220446049250313e-16,
        0.0,
        0.0,
        0.0,
        0.0,
        1.0
      ],
      "name": "GLTF_SceneRootNode"
    },
    {
      "children": [
        4
      ],
      "matrix": [
        1.0556062459945679,
        0.0,
        0.0,
        0.0,
        0.0,
        1.0556062459945679,
        0.0,
        0.0,
        0.0,
        0.0,
        1.0556062459945679,
        0.0,
        0.0,
        0.0,
        0.0,
        1.0
      ],
      "name": "Atmosphere_0"
    },
    {
      "mesh": 0,
      "name": "Object_4"
    },
    {
      "children": [
        6
      ],
      "name": "Clouds_1",
      "scale": [
        1.0456584692001343,
        1.0456584692001343,
        1.0456584692001343
      ]
    },
    {
      "mesh": 1,
      "name": "Object_6"
    },
    {
      "children": [
        8,
        9,
        10,
        11,
        12
      ],
      "name": "Sphere_2"
    },
    {
      "mesh": 2,
      "name": "Object_8"
    },
    {
      "mesh": 3,
      "name": "Object_9"
    },
    {
      "mesh": 4,
      "name": "Object_10"
    },
    {
      "mesh": 5,
      "name": "Object_11"
    },
    {
      "mesh": 6,
      "name": "Object_12"
    }
  ],
  "samplers": [
    {
      "magFilter": 9729,
      "minFilter": 9987,
      "wrapS": 10497,
      "wrapT": 10497
    }
  ],
  "scene": 0,
  "scenes": [
    {
      "name": "Sketchfab_Scene",
      "nodes": [
        0
      ]
    }
  ],
  "textures": [
    {
      "sampler": 0,
      "source": 0
    },
    {
      "sampler": 0,
      "source": 1
    },
    {
      "sampler": 0,
      "source": 2
    }
  ]
}
