{
	"asset":{
		"generator":"Khronos glTF Blender I/O v3.6.28",
		"version":"2.0"
	},
	"scene":0,
	"scenes":[
		{
			"name":"Scene",
			"nodes":[
				8
			]
		}
	],
	"nodes":[
		{
			"mesh":0,
			"name":"mesh_id1",
			"scale":[
				1.284000039100647,
				0.6450000405311584,
				0.0010000000474974513
			]
		},
		{
			"mesh":1,
			"name":"node_id36"
		},
		{
			"children":[
				1
			],
			"name":"node_id35",
			"rotation":[
				-0.70710688829422,
				0,
				0,
				0.7071066498756409
			],
			"scale":[
				151.07484436035156,
				151.0748291015625,
				151.0748291015625
			],
			"translation":[
				-0.0002307891845703125,
				-0.023120880126953125,
				255.99945068359375
			]
		},
		{
			"mesh":2,
			"name":"node_id39"
		},
		{
			"children":[
				3
			],
			"name":"node_id38",
			"rotation":[
				-0.70710688829422,
				0,
				0,
				0.7071066498756409
			],
			"scale":[
				151.07484436035156,
				151.0748291015625,
				151.0748291015625
			],
			"translation":[
				-0.0002307891845703125,
				-0.023120880126953125,
				255.99945068359375
			]
		},
		{
			"mesh":3,
			"name":"node_id42"
		},
		{
			"children":[
				5
			],
			"name":"node_id41",
			"rotation":[
				-0.70710688829422,
				0,
				0,
				0.7071066498756409
			],
			"scale":[
				151.07484436035156,
				151.0748291015625,
				151.0748291015625
			],
			"translation":[
				-0.0002307891845703125,
				-0.023120880126953125,
				255.99945068359375
			]
		},
		{
			"children":[
				2,
				4,
				6
			],
			"name":"node_id44",
			"scale":[
				0.0008244175114668906,
				0.0008244175114668906,
				0.0008244175114668906
			],
			"translation":[
				-0.0008469158783555031,
				-0.0008892963523976505,
				-0.21382465958595276
			]
		},
		{
			"children":[
				0,
				7
			],
			"name":"root"
		}
	],
	"materials":[
		{
			"alphaMode":"BLEND",
			"doubleSided":true,
			"name":"25",
			"pbrMetallicRoughness":{}
		},
		{
			"alphaCutoff":0.5,
			"alphaMode":"MASK",
			"doubleSided":true,
			"name":"51",
			"pbrMetallicRoughness":{}
		},
		{
			"alphaCutoff":0.5,
			"alphaMode":"MASK",
			"doubleSided":true,
			"name":"52",
			"pbrMetallicRoughness":{}
		},
		{
			"alphaCutoff":0.5,
			"alphaMode":"MASK",
			"doubleSided":true,
			"name":"53",
			"pbrMetallicRoughness":{}
		}
	],
	"meshes":[
		{
			"name":"mesh_id1",
			"primitives":[
				{
					"attributes":{
						"POSITION":0,
						"NORMAL":1,
						"TEXCOORD_0":2
					},
					"indices":3,
					"material":0
				}
			]
		},
		{
			"name":"mesh_id37",
			"primitives":[
				{
					"attributes":{
						"POSITION":4,
						"NORMAL":5,
						"TEXCOORD_0":6
					},
					"indices":7,
					"material":1
				}
			]
		},
		{
			"name":"mesh_id40",
			"primitives":[
				{
					"attributes":{
						"POSITION":8,
						"NORMAL":9,
						"TEXCOORD_0":10
					},
					"indices":11,
					"material":2
				}
			]
		},
		{
			"name":"mesh_id43",
			"primitives":[
				{
					"attributes":{
						"POSITION":12,
						"NORMAL":13,
						"TEXCOORD_0":14
					},
					"indices":15,
					"material":3
				}
			]
		}
	],
	"accessors":[
		{
			"bufferView":0,
			"componentType":5126,
			"count":4,
			"max":[
				0.5,
				0.5,
				0
			],
			"min":[
				-0.5,
				-0.5,
				0
			],
			"type":"VEC3"
		},
		{
			"bufferView":1,
			"componentType":5126,
			"count":4,
			"type":"VEC3"
		},
		{
			"bufferView":2,
			"componentType":5126,
			"count":4,
			"type":"VEC2"
		},
		{
			"bufferView":3,
			"componentType":5123,
			"count":6,
			"type":"SCALAR"
		},
		{
			"bufferView":4,
			"componentType":5126,
			"count":65540,
			"max":[
				1.6283763647079468,
				1.6815510988235474,
				1.197137713432312
			],
			"min":[
				-1.6817022562026978,
				-1.1917614936828613,
				-1.694209098815918
			],
			"type":"VEC3"
		},
		{
			"bufferView":5,
			"componentType":5126,
			"count":65540,
			"type":"VEC3"
		},
		{
			"bufferView":6,
			"componentType":5126,
			"count":65540,
			"type":"VEC2"
		},
		{
			"bufferView":7,
			"componentType":5125,
			"count":383871,
			"type":"SCALAR"
		},
		{
			"bufferView":8,
			"componentType":5126,
			"count":65550,
			"max":[
				1.6817039251327515,
				1.6817024946212769,
				1.685748815536499
			],
			"min":[
				-1.6817022562026978,
				-1.3769826889038086,
				-1.6943695545196533
			],
			"type":"VEC3"
		},
		{
			"bufferView":9,
			"componentType":5126,
			"count":65550,
			"type":"VEC3"
		},
		{
			"bufferView":10,
			"componentType":5126,
			"count":65550,
			"type":"VEC2"
		},
		{
			"bufferView":11,
			"componentType":5125,
			"count":380595,
			"type":"SCALAR"
		},
		{
			"bufferView":12,
			"componentType":5126,
			"count":59453,
			"max":[
				1.3235830068588257,
				1.1715428829193115,
				1.694678783416748
			],
			"min":[
				-1.1968016624450684,
				-1.6817032098770142,
				-0.9792263507843018
			],
			"type":"VEC3"
		},
		{
			"bufferView":13,
			"componentType":5126,
			"count":59453,
			"type":"VEC3"
		},
		{
			"bufferView":14,
			"componentType":5126,
			"count":59453,
			"type":"VEC2"
		},
		{
			"bufferView":15,
			"componentType":5123,
			"count":350670,
			"type":"SCALAR"
		}
	],
	"bufferViews":[
		{
			"buffer":0,
			"byteLength":48,
			"byteOffset":0,
			"target":34962
		},
		{
			"buffer":0,
			"byteLength":48,
			"byteOffset":48,
			"target":34962
		},
		{
			"buffer":0,
			"byteLength":32,
			"byteOffset":96,
			"target":34962
		},
		{
			"buffer":0,
			"byteLength":12,
			"byteOffset":128,
			"target":34963
		},
		{
			"buffer":0,
			"byteLength":786480,
			"byteOffset":140,
			"target":34962
		},
		{
			"buffer":0,
			"byteLength":786480,
			"byteOffset":786620,
			"target":34962
		},
		{
			"buffer":0,
			"byteLength":524320,
			"byteOffset":1573100,
			"target":34962
		},
		{
			"buffer":0,
			"byteLength":1535484,
			"byteOffset":2097420,
			"target":34963
		},
		{
			"buffer":0,
			"byteLength":786600,
			"byteOffset":3632904,
			"target":34962
		},
		{
			"buffer":0,
			"byteLength":786600,
			"byteOffset":4419504,
			"target":34962
		},
		{
			"buffer":0,
			"byteLength":524400,
			"byteOffset":5206104,
			"target":34962
		},
		{
			"buffer":0,
			"byteLength":1522380,
			"byteOffset":5730504,
			"target":34963
		},
		{
			"buffer":0,
			"byteLength":713436,
			"byteOffset":7252884,
			"target":34962
		},
		{
			"buffer":0,
			"byteLength":713436,
			"byteOffset":7966320,
			"target":34962
		},
		{
			"buffer":0,
			"byteLength":475624,
			"byteOffset":8679756,
			"target":34962
		},
		{
			"buffer":0,
			"byteLength":701340,
			"byteOffset":9155380,
			"target":34963
		}
	],
	"buffers":[
		{
			"byteLength":9856720,
			"uri":"atm.bin"
		}
	]
}
