{
  "accessors": [
    {
      "bufferView": 2,
      "componentType": 5126,
      "count": 36550,
      "max": [
        0.13282647728919983,
        0.3248822093009949,
        0.19750778377056122
      ],
      "min": [
        -0.13282650709152222,
        0.0,
        -0.19775283336639404
      ],
      "type": "VEC3"
    },
    {
      "bufferView": 2,
      "byteOffset": 438600,
      "componentType": 5126,
      "count": 36550,
      "max": [
        1.0,
        1.0,
        1.0
      ],
      "min": [
        -1.0,
        -1.0,
        -1.0
      ],
      "type": "VEC3"
    },
    {
      "bufferView": 3,
      "componentType": 5126,
      "count": 36550,
      "max": [
        1.0,
        1.0,
        1.0,
        1.0
      ],
      "min": [
        -1.0,
        -1.0,
        -1.0,
        -1.0
      ],
      "type": "VEC4"
    },
    {
      "bufferView": 1,
      "componentType": 5126,
      "count": 36550,
      "max": [
        0.9985299706459045,
        0.9736170172691345
      ],
      "min": [
        0.0014690000098198652,
        0.0014700889587402344
      ],
      "type": "VEC2"
    },
    {
      "bufferView": 0,
      "componentType": 5125,
      "count": 137064,
      "type": "SCALAR"
    },
    {
      "bufferView": 2,
      "byteOffset": 877200,
      "componentType": 5126,
      "count": 65534,
      "max": [
        0.13293276727199554,
        0.2568087577819824,
        0.19775283336639404
      ],
      "min": [
        -0.13293276727199554,
        0.06807345896959305,
        -0.12199778854846954
      ],
      "type": "VEC3"
    },
    {
      "bufferView": 2,
      "byteOffset": 1663608,
      "componentType": 5126,
      "count": 65534,
      "max": [
        1.0,
        1.0,
        1.0
      ],
      "min": [
        -1.0,
        -1.0,
        -1.0
      ],
      "type": "VEC3"
    },
    {
      "bufferView": 3,
      "byteOffset": 584800,
      "componentType": 5126,
      "count": 65534,
      "max": [
        1.0,
        1.0,
        1.0,
        1.0
      ],
      "min": [
        -1.0,
        -1.0,
        -1.0,
        -1.0
      ],
      "type": "VEC4"
    },
    {
      "bufferView": 1,
      "byteOffset": 292400,
      "componentType": 5126,
      "count": 65534,
      "max": [
        0.9985179901123047,
        0.9965760111808777
      ],
      "min": [
        0.0014659999869763851,
        0.0014899969100952148
      ],
      "type": "VEC2"
    },
    {
      "bufferView": 0,
      "byteOffset": 548256,
      "componentType": 5125,
      "count": 210885,
      "type": "SCALAR"
    },
    {
      "bufferView": 2,
      "byteOffset": 2450016,
      "componentType": 5126,
      "count": 65532,
      "max": [
        0.13293276727199554,
        0.3108735680580139,
        0.1970260590314865
      ],
      "min": [
        -0.13293276727199554,
        0.014008636586368084,
        -0.12856851518154144
      ],
      "type": "VEC3"
    },
    {
      "bufferView": 2,
      "byteOffset": 3236400,
      "componentType": 5126,
      "count": 65532,
      "max": [
        1.0,
        1.0,
        1.0
      ],
      "min": [
        -1.0,
        -1.0,
        -1.0
      ],
      "type": "VEC3"
    },
    {
      "bufferView": 3,
      "byteOffset": 1633344,
      "componentType": 5126,
      "count": 65532,
      "max": [
        1.0,
        1.0,
        1.0,
        1.0
      ],
      "min": [
        -1.0,
        -1.0,
        -1.0,
        -1.0
      ],
      "type": "VEC4"
    },
    {
      "bufferView": 1,
      "byteOffset": 816672,
      "componentType": 5126,
      "count": 65532,
      "max": [
        0.9985319972038269,
        0.998494029045105
      ],
      "min": [
        0.0014700000174343586,
        0.0015540122985839844
      ],
      "type": "VEC2"
    },
    {
      "bufferView": 0,
      "byteOffset": 1391796,
      "componentType": 5125,
      "count": 206058,
      "type": "SCALAR"
    },
    {
      "bufferView": 2,
      "byteOffset": 4022784,
      "componentType": 5126,
      "count": 16878,
      "max": [
        0.059461623430252075,
        0.3108735680580139,
        0.10465951263904572
      ],
      "min": [
        -0.13038308918476105,
        0.014008636586368084,
        -0.12856851518154144
      ],
      "type": "VEC3"
    },
    {
      "bufferView": 2,
      "byteOffset": 4225320,
      "componentType": 5126,
      "count": 16878,
      "max": [
        1.0,
        1.0,
        1.0
      ],
      "min": [
        -1.0,
        -1.0,
        -1.0
      ],
      "type": "VEC3"
    },
    {
      "bufferView": 3,
      "byteOffset": 2681856,
      "componentType": 5126,
      "count": 16878,
      "max": [
        1.0,
        1.0,
        1.0,
        1.0
      ],
      "min": [
        -1.0,
        -1.0,
        -1.0,
        -1.0
      ],
      "type": "VEC4"
    },
    {
      "bufferView": 1,
      "byteOffset": 1340928,
      "componentType": 5126,
      "count": 16878,
      "max": [
        0.9984300136566162,
        0.9895820021629333
      ],
      "min": [
        0.0014690000098198652,
        0.0015159845352172852
      ],
      "type": "VEC2"
    },
    {
      "bufferView": 0,
      "byteOffset": 2216028,
      "componentType": 5125,
      "count": 50079,
      "type": "SCALAR"
    },
    {
      "bufferView": 2,
      "byteOffset": 4427856,
      "componentType": 5126,
      "count": 1679,
      "max": [
        1.429800033569336,
        2.898374080657959,
        1.429800033569336
      ],
      "min": [
        -1.429800033569336,
        0.0387740433216095,
        -1.429800033569336
      ],
      "type": "VEC3"
    },
    {
      "bufferView": 2,
      "byteOffset": 4448004,
      "componentType": 5126,
      "count": 1679,
      "max": [
        1.0,
        1.0,
        1.0
      ],
      "min": [
        -1.0,
        -1.0,
        -1.0
      ],
      "type": "VEC3"
    },
    {
      "bufferView": 3,
      "byteOffset": 2951904,
      "componentType": 5126,
      "count": 1679,
      "max": [
        1.0,
        0.03929167985916138,
        1.0,
        -1.0
      ],
      "min": [
        -1.0,
        -0.0392908975481987,
        -1.0,
        -1.0
      ],
      "type": "VEC4"
    },
    {
      "bufferView": 1,
      "byteOffset": 1475952,
      "componentType": 5126,
      "count": 1679,
      "max": [
        1.0,
        1.0
      ],
      "min": [
        0.0,
        0.0
      ],
      "type": "VEC2"
    },
    {
      "bufferView": 0,
      "byteOffset": 2416344,
      "componentType": 5125,
      "count": 9360,
      "type": "SCALAR"
    },
    {
      "bufferView": 2,
      "byteOffset": 4468152,
      "componentType": 5126,
      "count": 1683,
      "max": [
        5.478970050811768,
        11.013279914855957,
        5.478971004486084
      ],
      "min": [
        -5.478970050811768,
        0.05534299835562706,
        -5.478971004486084
      ],
      "type": "VEC3"
    },
    {
      "bufferView": 2,
      "byteOffset": 4488348,
      "componentType": 5126,
      "count": 1683,
      "max": [
        1.0,
        1.0,
        1.0
      ],
      "min": [
        -1.0,
        -1.0,
        -1.0
      ],
      "type": "VEC3"
    },
    {
      "bufferView": 3,
      "byteOffset": 2978768,
      "componentType": 5126,
      "count": 1683,
      "max": [
        1.0,
        0.03929075598716736,
        1.0,
        -1.0
      ],
      "min": [
        -1.0,
        -0.03929097577929497,
        -1.0,
        -1.0
      ],
      "type": "VEC4"
    },
    {
      "bufferView": 1,
      "byteOffset": 1489384,
      "componentType": 5126,
      "count": 1683,
      "max": [
        1.0,
        1.0
      ],
      "min": [
        0.0,
        0.0
      ],
      "type": "VEC2"
    },
    {
      "bufferView": 0,
      "byteOffset": 2453784,
      "componentType": 5125,
      "count": 9360,
      "type": "SCALAR"
    },
    {
      "bufferView": 2,
      "byteOffset": 4508544,
      "componentType": 5126,
      "count": 1683,
      "max": [
        5.534311771392822,
        11.068623542785645,
        5.534313201904297
      ],
      "min": [
        -5.534311771392822,
        0.0,
        -5.534313201904297
      ],
      "type": "VEC3"
    },
    {
      "bufferView": 2,
      "byteOffset": 4528740,
      "componentType": 5126,
      "count": 1683,
      "max": [
        1.0,
        1.0,
        1.0
      ],
      "min": [
        -1.0,
        -1.0,
        -1.0
      ],
      "type": "VEC3"
    },
    {
      "bufferView": 3,
      "byteOffset": 3005696,
      "componentType": 5126,
      "count": 1683,
      "max": [
        1.0,
        0.03929148614406586,
        1.0,
        -1.0
      ],
      "min": [
        -1.0,
        -0.03929124400019646,
        -1.0,
        -1.0
      ],
      "type": "VEC4"
    },
    {
      "bufferView": 1,
      "byteOffset": 1502848,
      "componentType": 5126,
      "count": 1683,
      "max": [
        1.0,
        1.0
      ],
      "min": [
        0.0,
        0.0
      ],
      "type": "VEC2"
    },
    {
      "bufferView": 0,
      "byteOffset": 2491224,
      "componentType": 5125,
      "count": 9360,
      "type": "SCALAR"
    },
    {
      "bufferView": 4,
      "componentType": 5126,
      "count": 3241,
      "max": [
        108.0
      ],
      "min": [
        0.0
      ],
      "type": "SCALAR"
    },
    {
      "bufferView": 5,
      "componentType": 5126,
      "count": 3241,
      "max": [
        1.0,
        0.6035527586936951,
        0.6035527586936951,
        1.0
      ],
      "min": [
        -0.854955792427063,
        -0.6035526990890503,
        -0.6035526990890503,
        -0.5
      ],
      "type": "VEC4"
    },
    {
      "bufferView": 4,
      "byteOffset": 12964,
      "componentType": 5126,
      "count": 3241,
      "max": [
        108.0
      ],
      "min": [
        0.0
      ],
      "type": "SCALAR"
    },
    {
      "bufferView": 5,
      "byteOffset": 51856,
      "componentType": 5126,
      "count": 3241,
      "max": [
        8.364493367528069e-17,
        1.0,
        8.364493367528069e-17,
        1.0
      ],
      "min": [
        -8.659556632959614e-17,
        -0.8655401468276978,
        -8.659556632959614e-17,
        -0.5
      ],
      "type": "VEC4"
    },
    {
      "bufferView": 4,
      "byteOffset": 25928,
      "componentType": 5126,
      "count": 3241,
      "max": [
        108.0
      ],
      "min": [
        0.0
      ],
      "type": "SCALAR"
    },
    {
      "bufferView": 5,
      "byteOffset": 103712,
      "componentType": 5126,
      "count": 3241,
      "max": [
        8.364493367528069e-17,
        1.0,
        8.364493367528069e-17,
        1.0
      ],
      "min": [
        -8.659556632959614e-17,
        -0.8655401468276978,
        -8.659556632959614e-17,
        -0.5
      ],
      "type": "VEC4"
    },
    {
      "bufferView": 4,
      "byteOffset": 38892,
      "componentType": 5126,
      "count": 3241,
      "max": [
        108.0
      ],
      "min": [
        0.0
      ],
      "type": "SCALAR"
    },
    {
      "bufferView": 5,
      "byteOffset": 155568,
      "componentType": 5126,
      "count": 3241,
      "max": [
        8.364493367528069e-17,
        1.0,
        8.364493367528069e-17,
        1.0
      ],
      "min": [
        -8.659544059814303e-17,
        -0.8660253882408142,
        -8.659544059814303e-17,
        -0.5
      ],
      "type": "VEC4"
    }
  ],
  "animations": [
    {
      "channels": [
        {
          "sampler": 0,
          "target": {
            "node": 4,
            "path": "rotation"
          }
        },
        {
          "sampler": 1,
          "target": {
            "node": 12,
            "path": "rotation"
          }
        },
        {
          "sampler": 2,
          "target": {
            "node": 16,
            "path": "rotation"
          }
        },
        {
          "sampler": 3,
          "target": {
            "node": 18,
            "path": "rotation"
          }
        }
      ],
      "name": "Orbit",
      "samplers": [
        {
          "input": 35,
          "interpolation": "LINEAR",
          "output": 36
        },
        {
          "input": 37,
          "interpolation": "LINEAR",
          "output": 38
        },
        {
          "input": 39,
          "interpolation": "LINEAR",
          "output": 40
        },
        {
          "input": 41,
          "interpolation": "LINEAR",
          "output": 42
        }
      ]
    }
  ],
  "asset": {
    "extras": {
      "author": "BlackProject (https://sketchfab.com/BlackProject)",
      "license": "CC-BY-4.0 (http://creativecommons.org/licenses/by/4.0/)",
      "source": "https://sketchfab.com/3d-models/planet-earth-27db6f519be14199b22688fad09a4b43",
      "title": "🌏 Planet Earth"
    },
    "generator": "Sketchfab-12.66.0",
    "version": "2.0"
  },
  "bufferViews": [
    {
      "buffer": 0,
      "byteLength": 2528664,
      "name": "floatBufferViews",
      "target": 34963
    },
    {
      "buffer": 0,
      "byteLength": 1516312,
      "byteOffset": 2528664,
      "byteStride": 8,
      "name": "floatBufferViews",
      "target": 34962
    },
    {
      "buffer": 0,
      "byteLength": 4548936,
      "byteOffset": 4044976,
      "byteStride": 12,
      "name": "floatBufferViews",
      "target": 34962
    },
    {
      "buffer": 0,
      "byteLength": 3032624,
      "byteOffset": 8593912,
      "byteStride": 16,
      "name": "floatBufferViews",
      "target": 34962
    },
    {
      "buffer": 0,
      "byteLength": 51856,
      "byteOffset": 11626536,
      "name": "floatBufferViews"
    },
    {
      "buffer": 0,
      "byteLength": 207424,
      "byteOffset": 11678392,
      "byteStride": 16,
      "name": "floatBufferViews"
    }
  ],
  "buffers": [
    {
      "byteLength": 11885816,
      "uri": "scene.bin"
    }
  ],
  "extensionsUsed": [
    "KHR_materials_transmission"
  ],
  "images": [
    {
      "uri": "textures/Big_Detail_baseColor.png"
    },
    {
      "uri": "textures/Big_Detail_metallicRoughness.png"
    },
    {
      "uri": "textures/Big_Detail_normal.png"
    },
    {
      "uri": "textures/Small_Detail_baseColor.png"
    },
    {
      "uri": "textures/Small_Detail_metallicRoughness.png"
    },
    {
      "uri": "textures/Small_Detail_normal.png"
    },
    {
      "uri": "textures/Moon_baseColor.png"
    },
    {
      "uri": "textures/Moon_metallicRoughness.png"
    },
    {
      "uri": "textures/Moon_normal.png"
    },
    {
      "uri": "textures/Earth_baseColor.png"
    },
    {
      "uri": "textures/Earth_metallicRoughness.png"
    },
    {
      "uri": "textures/Earth_normal.png"
    },
    {
      "uri": "textures/Atmosphere_baseColor.png"
    },
    {
      "uri": "textures/Atmosphere_metallicRoughness.png"
    },
    {
      "uri": "textures/Atmosphere_normal.png"
    },
    {
      "uri": "textures/Atmosphere_transmission.png"
    }
  ],
  "materials": [
    {
      "doubleSided": true,
      "name": "Big_Detail",
      "normalTexture": {
        "index": 2
      },
      "pbrMetallicRoughness": {
        "baseColorTexture": {
          "index": 0
        },
        "metallicRoughnessTexture": {
          "index": 1
        }
      }
    },
    {
      "doubleSided": true,
      "name": "Small_Detail",
      "normalTexture": {
        "index": 5
      },
      "pbrMetallicRoughness": {
        "baseColorTexture": {
          "index": 3
        },
        "metallicRoughnessTexture": {
          "index": 4
        }
      }
    },
    {
      "doubleSided": true,
      "name": "Moon",
      "normalTexture": {
        "index": 8
      },
      "pbrMetallicRoughness": {
        "baseColorTexture": {
          "index": 6
        },
        "metallicFactor": 0.0,
        "metallicRoughnessTexture": {
          "index": 7
        }
      }
    },
    {
      "doubleSided": true,
      "name": "Earth",
      "normalTexture": {
        "index": 11
      },
      "pbrMetallicRoughness": {
        "baseColorTexture": {
          "index": 9
        },
        "metallicFactor": 0.0,
        "metallicRoughnessTexture": {
          "index": 10
        }
      }
    },
    {
      "alphaMode": "BLEND",
      "doubleSided": true,
      "extensions": {
        "KHR_materials_transmission": {
          "transmissionFactor": 1.0,
          "transmissionTexture": {
            "index": 15
          }
        }
      },
      "name": "Atmosphere",
      "normalTexture": {
        "index": 14
      },
      "pbrMetallicRoughness": {
        "baseColorTexture": {
          "index": 12
        },
        "metallicFactor": 0.0,
        "metallicRoughnessTexture": {
          "index": 13
        }
      }
    }
  ],
  "meshes": [
    {
      "name": "Big_Big Detail_0",
      "primitives": [
        {
          "attributes": {
            "NORMAL": 1,
            "POSITION": 0,
            "TANGENT": 2,
            "TEXCOORD_0": 3
          },
          "indices": 4,
          "material": 0,
          "mode": 4
        }
      ]
    },
    {
      "name": "Small_Small Detail_0",
      "primitives": [
        {
          "attributes": {
            "NORMAL": 6,
            "POSITION": 5,
            "TANGENT": 7,
            "TEXCOORD_0": 8
          },
          "indices": 9,
          "material": 1,
          "mode": 4
        }
      ]
    },
    {
      "name": "Small_Small Detail_0",
      "primitives": [
        {
          "attributes": {
            "NORMAL": 11,
            "POSITION": 10,
            "TANGENT": 12,
            "TEXCOORD_0": 13
          },
          "indices": 14,
          "material": 1,
          "mode": 4
        }
      ]
    },
    {
      "name": "Small_Small Detail_0",
      "primitives": [
        {
          "attributes": {
            "NORMAL": 16,
            "POSITION": 15,
            "TANGENT": 17,
            "TEXCOORD_0": 18
          },
          "indices": 19,
          "material": 1,
          "mode": 4
        }
      ]
    },
    {
      "name": "Moon_Moon_0",
      "primitives": [
        {
          "attributes": {
            "NORMAL": 21,
            "POSITION": 20,
            "TANGENT": 22,
            "TEXCOORD_0": 23
          },
          "indices": 24,
          "material": 2,
          "mode": 4
        }
      ]
    },
    {
      "name": "Earth_Earth_0",
      "primitives": [
        {
          "attributes": {
            "NORMAL": 26,
            "POSITION": 25,
            "TANGENT": 27,
            "TEXCOORD_0": 28
          },
          "indices": 29,
          "material": 3,
          "mode": 4
        }
      ]
    },
    {
      "name": "Atmosphere_Atmosphere_0",
      "primitives": [
        {
          "attributes": {
            "NORMAL": 31,
            "POSITION": 30,
            "TANGENT": 32,
            "TEXCOORD_0": 33
          },
          "indices": 34,
          "material": 4,
          "mode": 4
        }
      ]
    }
  ],
  "nodes": [
    {
      "children": [
        1
      ],
      "matrix": [
        0.20000000298023224,
        0.0,
        0.0,
        0.0,
        0.0,
        4.440892164675075e-17,
        -0.20000000298023224,
        0.0,
        0.0,
        0.20000000298023224,
        4.440892164675075e-17,
        0.0,
        0.0,
        0.0,
        0.0,
        1.0
      ],
      "name": "Sketchfab_model"
    },
    {
      "children": [
        2
      ],
      "matrix": [
        1.0,
        0.0,
        0.0,
        0.0,
        0.0,
        0.0,
        1.0,
        0.0,
        0.0,
        -1.0,
        0.0,
        0.0,
        0.0,
        0.0,
        0.0,
        1.0
      ],
      "name": "85715b04902e476eb774bb03dacf8627.fbx"
    },
    {
      "children": [
        3
      ],
      "name": "Object_2"
    },
    {
      "children": [
        4,
        12,
        15
      ],
      "name": "RootNode"
    },
    {
      "children": [
        5
      ],
      "name": "Telescope_Orbit",
      "translation": [
        0.0,
        5.534295082092285,
        0.0
      ]
    },
    {
      "children": [
        6,
        8
      ],
      "name": "Hubble_Telescope",
      "translation": [
        0.0,
        -0.00010142923565581441,
        -7.0
      ]
    },
    {
      "children": [
        7
      ],
      "name": "Big"
    },
    {
      "mesh": 0,
      "name": "Big_Big Detail_0"
    },
    {
      "children": [
        9,
        10,
        11
      ],
      "name": "Small"
    },
    {
      "mesh": 1,
      "name": "Small_Small Detail_0"
    },
    {
      "mesh": 2,
      "name": "Small_Small Detail_0"
    },
    {
      "mesh": 3,
      "name": "Small_Small Detail_0"
    },
    {
      "children": [
        13
      ],
      "name": "Moon_Orbit"
    },
    {
      "children": [
        14
      ],
      "name": "Moon",
      "translation": [
        0.0,
        10.0,
        10.0
      ]
    },
    {
      "mesh": 4,
      "name": "Moon_Moon_0"
    },
    {
      "children": [
        16,
        18
      ],
      "name": "Planet_Earth"
    },
    {
      "children": [
        17
      ],
      "name": "Earth"
    },
    {
      "mesh": 5,
      "name": "Earth_Earth_0"
    },
    {
      "children": [
        19
      ],
      "name": "Atmosphere"
    },
    {
      "mesh": 6,
      "name": "Atmosphere_Atmosphere_0"
    }
  ],
  "samplers": [
    {
      "magFilter": 9729,
      "minFilter": 9987,
      "wrapS": 10497,
      "wrapT": 10497
    }
  ],
  "scene": 0,
  "scenes": [
    {
      "name": "Sketchfab_Scene",
      "nodes": [
        0
      ]
    }
  ],
  "textures": [
    {
      "sampler": 0,
      "source": 0
    },
    {
      "sampler": 0,
      "source": 1
    },
    {
      "sampler": 0,
      "source": 2
    },
    {
      "sampler": 0,
      "source": 3
    },
    {
      "sampler": 0,
      "source": 4
    },
    {
      "sampler": 0,
      "source": 5
    },
    {
      "sampler": 0,
      "source": 6
    },
    {
      "sampler": 0,
      "source": 7
    },
    {
      "sampler": 0,
      "source": 8
    },
    {
      "sampler": 0,
      "source": 9
    },
    {
      "sampler": 0,
      "source": 10
    },
    {
      "sampler": 0,
      "source": 11
    },
    {
      "sampler": 0,
      "source": 12
    },
    {
      "sampler": 0,
      "source": 13
    },
    {
      "sampler": 0,
      "source": 14
    },
    {
      "sampler": 0,
      "source": 15
    }
  ]
}
