{
	"asset":{
		"generator":"Khronos glTF Blender I/O v3.6.28",
		"version":"2.0"
	},
	"extensionsUsed":[
		"KHR_materials_transmission",
		"KHR_materials_ior",
		"KHR_lights_punctual"
	],
	"extensionsRequired":[
		"KHR_lights_punctual"
	],
	"extensions":{
		"KHR_lights_punctual":{
			"lights":[
				{
					"color":[
						1,
						1,
						1
					],
					"intensity":54351.41306588226,
					"type":"point",
					"name":"Light"
				}
			]
		}
	},
	"scene":0,
	"scenes":[
		{
			"name":"Scene",
			"nodes":[
				0,
				1,
				2,
				3,
				4,
				5,
				6,
				7,
				8
			]
		}
	],
	"nodes":[
		{
			"mesh":0,
			"name":"Mesh_0",
			"translation":[
				5.672500133514404,
				3.859999895095825,
				-50.14056396484375
			]
		},
		{
			"mesh":1,
			"name":"Mesh_1",
			"translation":[
				5.672500133514404,
				3.859999895095825,
				-50.14056396484375
			]
		},
		{
			"mesh":2,
			"name":"Mesh_2",
			"translation":[
				5.672500133514404,
				3.859999895095825,
				-50.14056396484375
			]
		},
		{
			"mesh":3,
			"name":"Mesh_3",
			"translation":[
				5.672500133514404,
				3.859999895095825,
				-50.14056396484375
			]
		},
		{
			"mesh":4,
			"name":"Mesh_4",
			"translation":[
				5.672500133514404,
				3.859999895095825,
				-50.14056396484375
			]
		},
		{
			"mesh":5,
			"name":"Mesh_5",
			"translation":[
				5.672500133514404,
				3.859999895095825,
				-50.14056396484375
			]
		},
		{
			"mesh":6,
			"name":"Mesh_20",
			"translation":[
				5.672500133514404,
				3.859999895095825,
				-50.14056396484375
			]
		},
		{
			"extensions":{
				"KHR_lights_punctual":{
					"light":0
				}
			},
			"name":"Light",
			"rotation":[
				-0.28416627645492554,
				0.7269423007965088,
				0.34203392267227173,
				0.5232754945755005
			],
			"translation":[
				4.076245307922363,
				5.903861999511719,
				-1.0054539442062378
			]
		},
		{
			"camera":0,
			"name":"Camera",
			"rotation":[
				-0.20997299253940582,
				0.3857799470424652,
				0.09062844514846802,
				0.8937962055206299
			],
			"translation":[
				7.358891487121582,
				4.958309173583984,
				6.925790786743164
			]
		}
	],
	"cameras":[
		{
			"name":"Camera",
			"perspective":{
				"aspectRatio":1.7777777777777777,
				"yfov":0.39959652046304894,
				"zfar":100,
				"znear":0.10000000149011612
			},
			"type":"perspective"
		}
	],
	"materials":[
		{
			"doubleSided":true,
			"name":"Material.001",
			"pbrMetallicRoughness":{
				"baseColorFactor":[
					0.049042101949453354,
					0.09083221107721329,
					0.8000000715255737,
					1
				],
				"metallicFactor":0,
				"roughnessFactor":0.5
			}
		},
		{
			"doubleSided":true,
			"name":"Material.002",
			"pbrMetallicRoughness":{
				"baseColorFactor":[
					0.1384316086769104,
					0.17144110798835754,
					0.539479672908783,
					1
				],
				"metallicFactor":0,
				"roughnessFactor":0.5
			}
		},
		{
			"doubleSided":true,
			"name":"Material.003",
			"pbrMetallicRoughness":{
				"baseColorFactor":[
					0.15922857820987701,
					0.8000000715255737,
					0.05238807573914528,
					1
				],
				"metallicFactor":0,
				"roughnessFactor":0.5
			}
		},
		{
			"doubleSided":true,
			"name":"Material.004",
			"pbrMetallicRoughness":{
				"baseColorFactor":[
					0.19806931912899017,
					0.5028864741325378,
					0.11193244159221649,
					1
				],
				"metallicFactor":0,
				"roughnessFactor":0.5
			}
		},
		{
			"doubleSided":true,
			"name":"Material.005",
			"pbrMetallicRoughness":{
				"baseColorFactor":[
					0.8000000715255737,
					0.14017502963542938,
					0,
					1
				],
				"metallicFactor":0,
				"roughnessFactor":0.5
			}
		},
		{
			"doubleSided":true,
			"name":"Material.006",
			"pbrMetallicRoughness":{
				"baseColorFactor":[
					0.51491779088974,
					0.1499597728252411,
					0.008568127639591694,
					1
				],
				"metallicFactor":0,
				"roughnessFactor":0.5
			}
		},
		{
			"doubleSided":true,
			"extensions":{
				"KHR_materials_transmission":{
					"transmissionFactor":0.6581817865371704
				},
				"KHR_materials_ior":{
					"ior":1.4500000476837158
				}
			},
			"name":"Material.021",
			"pbrMetallicRoughness":{
				"baseColorFactor":[
					0.4735700488090515,
					0.01120337750762701,
					0.8000000715255737,
					0.02909090928733349
				],
				"metallicFactor":0,
				"roughnessFactor":0
			}
		}
	],
	"meshes":[
		{
			"name":"Mesh_0",
			"primitives":[
				{
					"attributes":{
						"COLOR_0":0,
						"POSITION":1,
						"NORMAL":2
					},
					"indices":3,
					"material":0
				}
			]
		},
		{
			"name":"Mesh_1",
			"primitives":[
				{
					"attributes":{
						"COLOR_0":4,
						"POSITION":5,
						"NORMAL":6
					},
					"indices":7,
					"material":1
				}
			]
		},
		{
			"name":"Mesh_2",
			"primitives":[
				{
					"attributes":{
						"COLOR_0":8,
						"POSITION":9,
						"NORMAL":10
					},
					"indices":11,
					"material":2
				}
			]
		},
		{
			"name":"Mesh_3",
			"primitives":[
				{
					"attributes":{
						"COLOR_0":12,
						"POSITION":13,
						"NORMAL":14
					},
					"indices":15,
					"material":3
				}
			]
		},
		{
			"name":"Mesh_4",
			"primitives":[
				{
					"attributes":{
						"COLOR_0":16,
						"POSITION":17,
						"NORMAL":18
					},
					"indices":19,
					"material":4
				}
			]
		},
		{
			"name":"Mesh_5",
			"primitives":[
				{
					"attributes":{
						"COLOR_0":20,
						"POSITION":21,
						"NORMAL":22
					},
					"indices":23,
					"material":5
				}
			]
		},
		{
			"name":"Mesh_20",
			"primitives":[
				{
					"attributes":{
						"COLOR_0":24,
						"POSITION":25,
						"NORMAL":26
					},
					"indices":27,
					"material":6
				}
			]
		}
	],
	"accessors":[
		{
			"bufferView":0,
			"componentType":5123,
			"count":7056,
			"normalized":true,
			"type":"VEC4"
		},
		{
			"bufferView":1,
			"componentType":5126,
			"count":7056,
			"max":[
				32.148956298828125,
				30.285242080688477,
				76.8666000366211
			],
			"min":[
				-53.17190933227539,
				-25.328800201416016,
				-7.455732345581055
			],
			"type":"VEC3"
		},
		{
			"bufferView":2,
			"componentType":5126,
			"count":7056,
			"type":"VEC3"
		},
		{
			"bufferView":3,
			"componentType":5123,
			"count":19212,
			"type":"SCALAR"
		},
		{
			"bufferView":4,
			"componentType":5123,
			"count":23148,
			"normalized":true,
			"type":"VEC4"
		},
		{
			"bufferView":5,
			"componentType":5126,
			"count":23148,
			"max":[
				31.42055892944336,
				29.569446563720703,
				79.78837585449219
			],
			"min":[
				-52.15885543823242,
				-24.599369049072266,
				-8.76258373260498
			],
			"type":"VEC3"
		},
		{
			"bufferView":6,
			"componentType":5126,
			"count":23148,
			"type":"VEC3"
		},
		{
			"bufferView":7,
			"componentType":5123,
			"count":94104,
			"type":"SCALAR"
		},
		{
			"bufferView":8,
			"componentType":5123,
			"count":2392,
			"normalized":true,
			"type":"VEC4"
		},
		{
			"bufferView":9,
			"componentType":5126,
			"count":2392,
			"max":[
				9.9278564453125,
				17.516767501831055,
				88.54833221435547
			],
			"min":[
				-26.116973876953125,
				-27.95516586303711,
				13.706670761108398
			],
			"type":"VEC3"
		},
		{
			"bufferView":10,
			"componentType":5126,
			"count":2392,
			"type":"VEC3"
		},
		{
			"bufferView":11,
			"componentType":5123,
			"count":6492,
			"type":"SCALAR"
		},
		{
			"bufferView":12,
			"componentType":5123,
			"count":7788,
			"normalized":true,
			"type":"VEC4"
		},
		{
			"bufferView":13,
			"componentType":5126,
			"count":7788,
			"max":[
				9.098613739013672,
				16.45421600341797,
				87.98594665527344
			],
			"min":[
				-25.38364028930664,
				-27.194520950317383,
				10.937850952148438
			],
			"type":"VEC3"
		},
		{
			"bufferView":14,
			"componentType":5126,
			"count":7788,
			"type":"VEC3"
		},
		{
			"bufferView":15,
			"componentType":5123,
			"count":32316,
			"type":"SCALAR"
		},
		{
			"bufferView":16,
			"componentType":5123,
			"count":632,
			"normalized":true,
			"type":"VEC4"
		},
		{
			"bufferView":17,
			"componentType":5126,
			"count":632,
			"max":[
				-3.546010971069336,
				-6.136975288391113,
				32.20616912841797
			],
			"min":[
				-18.495351791381836,
				-30.78130340576172,
				12.929620742797852
			],
			"type":"VEC3"
		},
		{
			"bufferView":18,
			"componentType":5126,
			"count":632,
			"type":"VEC3"
		},
		{
			"bufferView":19,
			"componentType":5123,
			"count":1692,
			"type":"SCALAR"
		},
		{
			"bufferView":20,
			"componentType":5123,
			"count":2292,
			"normalized":true,
			"type":"VEC4"
		},
		{
			"bufferView":21,
			"componentType":5126,
			"count":2292,
			"max":[
				-4.19133996963501,
				-6.9016594886779785,
				32.69129943847656
			],
			"min":[
				-18.11409568786621,
				-30.371095657348633,
				10.929367065429688
			],
			"type":"VEC3"
		},
		{
			"bufferView":22,
			"componentType":5126,
			"count":2292,
			"type":"VEC3"
		},
		{
			"bufferView":23,
			"componentType":5123,
			"count":9300,
			"type":"SCALAR"
		},
		{
			"bufferView":24,
			"componentType":5123,
			"count":389758,
			"normalized":true,
			"type":"VEC4"
		},
		{
			"bufferView":25,
			"componentType":5126,
			"count":389758,
			"max":[
				47.27254867553711,
				39.5562858581543,
				112.00999450683594
			],
			"min":[
				-58.643592834472656,
				-47.3763427734375,
				-12.026834487915039
			],
			"type":"VEC3"
		},
		{
			"bufferView":26,
			"componentType":5126,
			"count":389758,
			"type":"VEC3"
		},
		{
			"bufferView":27,
			"componentType":5125,
			"count":2338200,
			"type":"SCALAR"
		}
	],
	"bufferViews":[
		{
			"buffer":0,
			"byteLength":56448,
			"byteOffset":0,
			"target":34962
		},
		{
			"buffer":0,
			"byteLength":84672,
			"byteOffset":56448,
			"target":34962
		},
		{
			"buffer":0,
			"byteLength":84672,
			"byteOffset":141120,
			"target":34962
		},
		{
			"buffer":0,
			"byteLength":38424,
			"byteOffset":225792,
			"target":34963
		},
		{
			"buffer":0,
			"byteLength":185184,
			"byteOffset":264216,
			"target":34962
		},
		{
			"buffer":0,
			"byteLength":277776,
			"byteOffset":449400,
			"target":34962
		},
		{
			"buffer":0,
			"byteLength":277776,
			"byteOffset":727176,
			"target":34962
		},
		{
			"buffer":0,
			"byteLength":188208,
			"byteOffset":1004952,
			"target":34963
		},
		{
			"buffer":0,
			"byteLength":19136,
			"byteOffset":1193160,
			"target":34962
		},
		{
			"buffer":0,
			"byteLength":28704,
			"byteOffset":1212296,
			"target":34962
		},
		{
			"buffer":0,
			"byteLength":28704,
			"byteOffset":1241000,
			"target":34962
		},
		{
			"buffer":0,
			"byteLength":12984,
			"byteOffset":1269704,
			"target":34963
		},
		{
			"buffer":0,
			"byteLength":62304,
			"byteOffset":1282688,
			"target":34962
		},
		{
			"buffer":0,
			"byteLength":93456,
			"byteOffset":1344992,
			"target":34962
		},
		{
			"buffer":0,
			"byteLength":93456,
			"byteOffset":1438448,
			"target":34962
		},
		{
			"buffer":0,
			"byteLength":64632,
			"byteOffset":1531904,
			"target":34963
		},
		{
			"buffer":0,
			"byteLength":5056,
			"byteOffset":1596536,
			"target":34962
		},
		{
			"buffer":0,
			"byteLength":7584,
			"byteOffset":1601592,
			"target":34962
		},
		{
			"buffer":0,
			"byteLength":7584,
			"byteOffset":1609176,
			"target":34962
		},
		{
			"buffer":0,
			"byteLength":3384,
			"byteOffset":1616760,
			"target":34963
		},
		{
			"buffer":0,
			"byteLength":18336,
			"byteOffset":1620144,
			"target":34962
		},
		{
			"buffer":0,
			"byteLength":27504,
			"byteOffset":1638480,
			"target":34962
		},
		{
			"buffer":0,
			"byteLength":27504,
			"byteOffset":1665984,
			"target":34962
		},
		{
			"buffer":0,
			"byteLength":18600,
			"byteOffset":1693488,
			"target":34963
		},
		{
			"buffer":0,
			"byteLength":3118064,
			"byteOffset":1712088,
			"target":34962
		},
		{
			"buffer":0,
			"byteLength":4677096,
			"byteOffset":4830152,
			"target":34962
		},
		{
			"buffer":0,
			"byteLength":4677096,
			"byteOffset":9507248,
			"target":34962
		},
		{
			"buffer":0,
			"byteLength":9352800,
			"byteOffset":14184344,
			"target":34963
		}
	],
	"buffers":[
		{
			"byteLength":23537144,
			"uri":"scene.bin"
		}
	]
}
