{
  "accessors": [
    {
      "bufferView": 2,
      "componentType": 5126,
      "count": 65532,
      "max": [
        0.9872313737869263,
        0.9975766539573669,
        0.9872314929962158
      ],
      "min": [
        -0.19259896874427795,
        -0.9975766539573669,
        -0.9872310161590576
      ],
      "type": "VEC3"
    },
    {
      "bufferView": 2,
      "byteOffset": 786384,
      "componentType": 5126,
      "count": 65532,
      "max": [
        0.9998497366905212,
        0.9975132346153259,
        0.9998497366905212
      ],
      "min": [
        -0.18300119042396545,
        -0.9975132942199707,
        -0.9998498558998108
      ],
      "type": "VEC3"
    },
    {
      "bufferView": 1,
      "componentType": 5126,
      "count": 65532,
      "max": [
        0.7812502384185791,
        1.0000001192092896
      ],
      "min": [
        0.24999995529651642,
        0.0
      ],
      "type": "VEC2"
    },
    {
      "bufferView": 0,
      "componentType": 5125,
      "count": 98298,
      "type": "SCALAR"
    },
    {
      "bufferView": 2,
      "byteOffset": 1572768,
      "componentType": 5126,
      "count": 61444,
      "max": [
        0.1779385209083557,
        0.9975766539573669,
        0.9872314929962158
      ],
      "min": [
        -0.9872310161590576,
        -0.9975766539573669,
        -0.9872310161590576
      ],
      "type": "VEC3"
    },
    {
      "bufferView": 2,
      "byteOffset": 2310096,
      "componentType": 5126,
      "count": 61444,
      "max": [
        0.16837313771247864,
        0.9975132346153259,
        0.999849796295166
      ],
      "min": [
        -0.9998497366905212,
        -0.9975132942199707,
        -0.9998497366905212
      ],
      "type": "VEC3"
    },
    {
      "bufferView": 1,
      "byteOffset": 524256,
      "componentType": 5126,
      "count": 61444,
      "max": [
        1.0000003576278687,
        1.0000001192092896
      ],
      "min": [
        0.0,
        0.0
      ],
      "type": "VEC2"
    },
    {
      "bufferView": 0,
      "byteOffset": 393192,
      "componentType": 5125,
      "count": 92166,
      "type": "SCALAR"
    },
    {
      "bufferView": 2,
      "byteOffset": 3047424,
      "componentType": 5126,
      "count": 65532,
      "max": [
        0.9872313737869263,
        0.9975766539573669,
        0.9872314929962158
      ],
      "min": [
        -0.19259896874427795,
        -0.9975766539573669,
        -0.9872310161590576
      ],
      "type": "VEC3"
    },
    {
      "bufferView": 2,
      "byteOffset": 3833808,
      "componentType": 5126,
      "count": 65532,
      "max": [
        0.9998497366905212,
        0.9975132346153259,
        0.9998497366905212
      ],
      "min": [
        -0.18300119042396545,
        -0.9975132942199707,
        -0.9998498558998108
      ],
      "type": "VEC3"
    },
    {
      "bufferView": 1,
      "byteOffset": 1015808,
      "componentType": 5126,
      "count": 65532,
      "max": [
        0.7812502384185791,
        1.0000001192092896
      ],
      "min": [
        0.24999995529651642,
        0.0
      ],
      "type": "VEC2"
    },
    {
      "bufferView": 0,
      "byteOffset": 761856,
      "componentType": 5125,
      "count": 98298,
      "type": "SCALAR"
    },
    {
      "bufferView": 2,
      "byteOffset": 4620192,
      "componentType": 5126,
      "count": 61444,
      "max": [
        0.1779385209083557,
        0.9975766539573669,
        0.9872314929962158
      ],
      "min": [
        -0.9872310161590576,
        -0.9975766539573669,
        -0.9872310161590576
      ],
      "type": "VEC3"
    },
    {
      "bufferView": 2,
      "byteOffset": 5357520,
      "componentType": 5126,
      "count": 61444,
      "max": [
        0.16837313771247864,
        0.9975132346153259,
        0.999849796295166
      ],
      "min": [
        -0.9998497366905212,
        -0.9975132942199707,
        -0.9998497366905212
      ],
      "type": "VEC3"
    },
    {
      "bufferView": 1,
      "byteOffset": 1540064,
      "componentType": 5126,
      "count": 61444,
      "max": [
        1.0000003576278687,
        1.0000001192092896
      ],
      "min": [
        0.0,
        0.0
      ],
      "type": "VEC2"
    },
    {
      "bufferView": 0,
      "byteOffset": 1155048,
      "componentType": 5125,
      "count": 92166,
      "type": "SCALAR"
    },
    {
      "bufferView": 2,
      "byteOffset": 6094848,
      "componentType": 5126,
      "count": 65532,
      "max": [
        0.9872313737869263,
        0.9975766539573669,
        0.9872314929962158
      ],
      "min": [
        -0.19259896874427795,
        -0.9975766539573669,
        -0.9872310161590576
      ],
      "type": "VEC3"
    },
    {
      "bufferView": 2,
      "byteOffset": 6881232,
      "componentType": 5126,
      "count": 65532,
      "max": [
        0.9998497366905212,
        0.9975132346153259,
        0.9998497366905212
      ],
      "min": [
        -0.18300126492977142,
        -0.9975132942199707,
        -0.9998498558998108
      ],
      "type": "VEC3"
    },
    {
      "bufferView": 1,
      "byteOffset": 2031616,
      "componentType": 5126,
      "count": 65532,
      "max": [
        0.7812502384185791,
        1.0000001192092896
      ],
      "min": [
        0.24999995529651642,
        0.0
      ],
      "type": "VEC2"
    },
    {
      "bufferView": 0,
      "byteOffset": 1523712,
      "componentType": 5125,
      "count": 98298,
      "type": "SCALAR"
    },
    {
      "bufferView": 2,
      "byteOffset": 7667616,
      "componentType": 5126,
      "count": 61444,
      "max": [
        0.1779385358095169,
        0.9975766539573669,
        0.9872314929962158
      ],
      "min": [
        -0.9872310161590576,
        -0.9975766539573669,
        -0.9682612419128418
      ],
      "type": "VEC3"
    },
    {
      "bufferView": 2,
      "byteOffset": 8404944,
      "componentType": 5126,
      "count": 61444,
      "max": [
        0.16837243735790253,
        0.9975132346153259,
        0.999849796295166
      ],
      "min": [
        -0.9998497366905212,
        -0.9975132942199707,
        -0.9782379269599915
      ],
      "type": "VEC3"
    },
    {
      "bufferView": 1,
      "byteOffset": 2555872,
      "componentType": 5126,
      "count": 61444,
      "max": [
        1.0000003576278687,
        1.0000001192092896
      ],
      "min": [
        0.0,
        0.0
      ],
      "type": "VEC2"
    },
    {
      "bufferView": 0,
      "byteOffset": 1916904,
      "componentType": 5125,
      "count": 92166,
      "type": "SCALAR"
    },
    {
      "bufferView": 3,
      "componentType": 5126,
      "count": 600,
      "max": [
        25.0
      ],
      "min": [
        0.0416666679084301
      ],
      "type": "SCALAR"
    },
    {
      "bufferView": 4,
      "componentType": 5126,
      "count": 600,
      "max": [
        10.0,
        0.0,
        9.99996566772461
      ],
      "min": [
        -9.999862670898438,
        0.0,
        -9.99996566772461
      ],
      "type": "VEC3"
    },
    {
      "bufferView": 3,
      "byteOffset": 2400,
      "componentType": 5126,
      "count": 600,
      "max": [
        25.0
      ],
      "min": [
        0.0416666679084301
      ],
      "type": "SCALAR"
    },
    {
      "bufferView": 5,
      "componentType": 5126,
      "count": 600,
      "max": [
        0.2819579839706421,
        0.9594258069992065,
        0.1881003975868225,
        0.9594259262084961
      ],
      "min": [
        -0.20905688405036926,
        -0.9593598246574402,
        -0.2819579243659973,
        -0.006320606917142868
      ],
      "type": "VEC4"
    },
    {
      "bufferView": 3,
      "byteOffset": 4800,
      "componentType": 5126,
      "count": 390,
      "max": [
        25.0
      ],
      "min": [
        0.0416666679084301
      ],
      "type": "SCALAR"
    },
    {
      "bufferView": 4,
      "byteOffset": 7200,
      "componentType": 5126,
      "count": 390,
      "max": [
        0.8250002861022949,
        0.8250001072883606,
        0.8250002861022949
      ],
      "min": [
        0.824999988079071,
        0.8250001072883606,
        0.824999988079071
      ],
      "type": "VEC3"
    },
    {
      "bufferView": 3,
      "byteOffset": 6360,
      "componentType": 5126,
      "count": 600,
      "max": [
        25.0
      ],
      "min": [
        0.0416666679084301
      ],
      "type": "SCALAR"
    },
    {
      "bufferView": 5,
      "byteOffset": 9600,
      "componentType": 5126,
      "count": 600,
      "max": [
        0.0,
        0.9999966621398926,
        -0.0,
        1.0
      ],
      "min": [
        0.0,
        -0.9999140501022339,
        -0.0,
        -0.007867060601711273
      ],
      "type": "VEC4"
    },
    {
      "bufferView": 3,
      "byteOffset": 8760,
      "componentType": 5126,
      "count": 398,
      "max": [
        25.0
      ],
      "min": [
        0.0416666679084301
      ],
      "type": "SCALAR"
    },
    {
      "bufferView": 4,
      "byteOffset": 11880,
      "componentType": 5126,
      "count": 398,
      "max": [
        2.7492284774780273,
        2.7492282390594482,
        2.7492284774780273
      ],
      "min": [
        2.749228000640869,
        2.7492282390594482,
        2.749228000640869
      ],
      "type": "VEC3"
    },
    {
      "bufferView": 3,
      "byteOffset": 10352,
      "componentType": 5126,
      "count": 600,
      "max": [
        25.0
      ],
      "min": [
        0.0416666679084301
      ],
      "type": "SCALAR"
    },
    {
      "bufferView": 4,
      "byteOffset": 16656,
      "componentType": 5126,
      "count": 600,
      "max": [
        10.000000953674316,
        -4.76837158203125e-07,
        9.999963760375977
      ],
      "min": [
        -9.999862670898438,
        -4.76837158203125e-07,
        -9.999964714050293
      ],
      "type": "VEC3"
    },
    {
      "bufferView": 3,
      "byteOffset": 12752,
      "componentType": 5126,
      "count": 600,
      "max": [
        25.0
      ],
      "min": [
        0.0416666679084301
      ],
      "type": "SCALAR"
    },
    {
      "bufferView": 5,
      "byteOffset": 19200,
      "componentType": 5126,
      "count": 600,
      "max": [
        5.483313998411177e-07,
        0.9997832179069519,
        7.24141898444941e-07,
        1.0
      ],
      "min": [
        -8.945736453824793e-07,
        -0.999783456325531,
        -3.5795474673250283e-07,
        0.02081283926963806
      ],
      "type": "VEC4"
    },
    {
      "bufferView": 3,
      "byteOffset": 15152,
      "componentType": 5126,
      "count": 512,
      "max": [
        25.0
      ],
      "min": [
        0.0416666679084301
      ],
      "type": "SCALAR"
    },
    {
      "bufferView": 4,
      "byteOffset": 23856,
      "componentType": 5126,
      "count": 512,
      "max": [
        1.0000001192092896,
        0.9999999403953552,
        1.0000001192092896
      ],
      "min": [
        0.9999997615814209,
        0.9999999403953552,
        0.9999997615814209
      ],
      "type": "VEC3"
    }
  ],
  "animations": [
    {
      "channels": [
        {
          "sampler": 0,
          "target": {
            "node": 6,
            "path": "translation"
          }
        },
        {
          "sampler": 1,
          "target": {
            "node": 6,
            "path": "rotation"
          }
        },
        {
          "sampler": 2,
          "target": {
            "node": 6,
            "path": "scale"
          }
        },
        {
          "sampler": 3,
          "target": {
            "node": 9,
            "path": "rotation"
          }
        },
        {
          "sampler": 4,
          "target": {
            "node": 9,
            "path": "scale"
          }
        },
        {
          "sampler": 5,
          "target": {
            "node": 10,
            "path": "translation"
          }
        },
        {
          "sampler": 6,
          "target": {
            "node": 10,
            "path": "rotation"
          }
        },
        {
          "sampler": 7,
          "target": {
            "node": 10,
            "path": "scale"
          }
        }
      ],
      "name": "Animation",
      "samplers": [
        {
          "input": 24,
          "interpolation": "LINEAR",
          "output": 25
        },
        {
          "input": 26,
          "interpolation": "LINEAR",
          "output": 27
        },
        {
          "input": 28,
          "interpolation": "LINEAR",
          "output": 29
        },
        {
          "input": 30,
          "interpolation": "LINEAR",
          "output": 31
        },
        {
          "input": 32,
          "interpolation": "LINEAR",
          "output": 33
        },
        {
          "input": 34,
          "interpolation": "LINEAR",
          "output": 35
        },
        {
          "input": 36,
          "interpolation": "LINEAR",
          "output": 37
        },
        {
          "input": 38,
          "interpolation": "LINEAR",
          "output": 39
        }
      ]
    }
  ],
  "asset": {
    "extras": {
      "author": "Ipay (https://sketchfab.com/ipay)",
      "license": "CC-BY-4.0 (http://creativecommons.org/licenses/by/4.0/)",
      "source": "https://sketchfab.com/3d-models/earth-moon-sun-f0512017c37f4830b7eb068b7f1b1a11",
      "title": "Earth-Moon-Sun"
    },
    "generator": "Sketchfab-12.68.0",
    "version": "2.0"
  },
  "bufferViews": [
    {
      "buffer": 0,
      "byteLength": 2285568,
      "name": "floatBufferViews",
      "target": 34963
    },
    {
      "buffer": 0,
      "byteLength": 3047424,
      "byteOffset": 2285568,
      "byteStride": 8,
      "name": "floatBufferViews",
      "target": 34962
    },
    {
      "buffer": 0,
      "byteLength": 9142272,
      "byteOffset": 5332992,
      "byteStride": 12,
      "name": "floatBufferViews",
      "target": 34962
    },
    {
      "buffer": 0,
      "byteLength": 17200,
      "byteOffset": 14475264,
      "name": "floatBufferViews"
    },
    {
      "buffer": 0,
      "byteLength": 30000,
      "byteOffset": 14492464,
      "byteStride": 12,
      "name": "floatBufferViews"
    },
    {
      "buffer": 0,
      "byteLength": 28800,
      "byteOffset": 14522464,
      "byteStride": 16,
      "name": "floatBufferViews"
    }
  ],
  "buffers": [
    {
      "byteLength": 14551264,
      "uri": "scene.bin"
    }
  ],
  "images": [
    {
      "uri": "textures/Material.001_baseColor.jpeg"
    },
    {
      "uri": "textures/Material.003_baseColor.jpeg"
    },
    {
      "uri": "textures/Material.004_baseColor.jpeg"
    }
  ],
  "materials": [
    {
      "doubleSided": true,
      "name": "Material.001",
      "pbrMetallicRoughness": {
        "baseColorTexture": {
          "index": 0
        },
        "metallicFactor": 0.0,
        "roughnessFactor": 0.5
      }
    },
    {
      "doubleSided": true,
      "name": "Material.003",
      "pbrMetallicRoughness": {
        "baseColorTexture": {
          "index": 1
        },
        "metallicFactor": 0.0,
        "roughnessFactor": 0.5
      }
    },
    {
      "doubleSided": true,
      "name": "Material.004",
      "pbrMetallicRoughness": {
        "baseColorTexture": {
          "index": 2
        },
        "metallicFactor": 0.0,
        "roughnessFactor": 0.5
      }
    }
  ],
  "meshes": [
    {
      "name": "Object_0",
      "primitives": [
        {
          "attributes": {
            "NORMAL": 1,
            "POSITION": 0,
            "TEXCOORD_0": 2
          },
          "indices": 3,
          "material": 0,
          "mode": 4
        }
      ]
    },
    {
      "name": "Object_1",
      "primitives": [
        {
          "attributes": {
            "NORMAL": 5,
            "POSITION": 4,
            "TEXCOORD_0": 6
          },
          "indices": 7,
          "material": 0,
          "mode": 4
        }
      ]
    },
    {
      "name": "Object_2",
      "primitives": [
        {
          "attributes": {
            "NORMAL": 9,
            "POSITION": 8,
            "TEXCOORD_0": 10
          },
          "indices": 11,
          "material": 1,
          "mode": 4
        }
      ]
    },
    {
      "name": "Object_3",
      "primitives": [
        {
          "attributes": {
            "NORMAL": 13,
            "POSITION": 12,
            "TEXCOORD_0": 14
          },
          "indices": 15,
          "material": 1,
          "mode": 4
        }
      ]
    },
    {
      "name": "Object_4",
      "primitives": [
        {
          "attributes": {
            "NORMAL": 17,
            "POSITION": 16,
            "TEXCOORD_0": 18
          },
          "indices": 19,
          "material": 2,
          "mode": 4
        }
      ]
    },
    {
      "name": "Object_5",
      "primitives": [
        {
          "attributes": {
            "NORMAL": 21,
            "POSITION": 20,
            "TEXCOORD_0": 22
          },
          "indices": 23,
          "material": 2,
          "mode": 4
        }
      ]
    }
  ],
  "nodes": [
    {
      "children": [
        1
      ],
      "matrix": [
        1.0,
        0.0,
        0.0,
        0.0,
        0.0,
        2.220446049250313e-16,
        -1.0,
        0.0,
        0.0,
        1.0,
        2.220446049250313e-16,
        0.0,
        0.0,
        0.0,
        0.0,
        1.0
      ],
      "name": "Sketchfab_model"
    },
    {
      "children": [
        2
      ],
      "name": "root"
    },
    {
      "children": [
        3,
        6,
        9,
        10
      ],
      "matrix": [
        1.0,
        0.0,
        0.0,
        0.0,
        0.0,
        2.220446049250313e-16,
        1.0,
        0.0,
        0.0,
        -1.0,
        2.220446049250313e-16,
        0.0,
        0.0,
        0.0,
        0.0,
        1.0
      ],
      "name": "GLTF_SceneRootNode"
    },
    {
      "children": [
        4,
        5
      ],
      "matrix": [
        2.5,
        0.0,
        0.0,
        0.0,
        0.0,
        2.5,
        0.0,
        0.0,
        0.0,
        0.0,
        2.5,
        0.0,
        0.0,
        0.0,
        0.0,
        1.0
      ],
      "name": "Sphere_2"
    },
    {
      "mesh": 0,
      "name": "Object_4"
    },
    {
      "mesh": 1,
      "name": "Object_5"
    },
    {
      "children": [
        7,
        8
      ],
      "name": "Sphere.001_3",
      "rotation": [
        0.19937457144260406,
        -0.041469965130090714,
        -0.19937457144260406,
        0.9585301280021667
      ],
      "scale": [
        0.8250001668930054,
        0.8250001072883606,
        0.8250001668930054
      ],
      "translation": [
        10.0,
        0.0,
        0.0
      ]
    },
    {
      "mesh": 2,
      "name": "Object_7"
    },
    {
      "mesh": 3,
      "name": "Object_8"
    },
    {
      "name": "Empty_4",
      "scale": [
        2.7492282390594482,
        2.7492282390594482,
        2.7492282390594482
      ]
    },
    {
      "children": [
        11
      ],
      "name": "Empty.001_6",
      "translation": [
        10.000000953674316,
        0.0,
        0.0
      ]
    },
    {
      "children": [
        12,
        13
      ],
      "matrix": [
        0.21812084317207336,
        0.0,
        0.0,
        0.0,
        0.0,
        0.21812085807323456,
        0.0,
        0.0,
        0.0,
        0.0,
        0.21812084317207336,
        0.0,
        -2.188960075378418,
        0.0,
        0.0,
        1.0
      ],
      "name": "Sphere.002_5"
    },
    {
      "mesh": 4,
      "name": "Object_12"
    },
    {
      "mesh": 5,
      "name": "Object_13"
    }
  ],
  "samplers": [
    {
      "magFilter": 9729,
      "minFilter": 9987,
      "wrapS": 10497,
      "wrapT": 10497
    }
  ],
  "scene": 0,
  "scenes": [
    {
      "name": "Sketchfab_Scene",
      "nodes": [
        0
      ]
    }
  ],
  "textures": [
    {
      "sampler": 0,
      "source": 0
    },
    {
      "sampler": 0,
      "source": 1
    },
    {
      "sampler": 0,
      "source": 2
    }
  ]
}
