{
  "accessors": [
    {
      "bufferView": 1,
      "componentType": 5126,
      "count": 3,
      "max": [
        -2.819200038909912,
        -34.13209915161133,
        -76.4583969116211
      ],
      "min": [
        -6.411799907684326,
        -35.78450012207031,
        -76.84819793701172
      ],
      "type": "VEC3"
    },
    {
      "bufferView": 1,
      "byteOffset": 36,
      "componentType": 5126,
      "count": 3,
      "max": [
        -0.07939843088388443,
        -0.5166897773742676,
        -0.8524831533432007
      ],
      "min": [
        -0.07939843088388443,
        -0.5166897773742676,
        -0.8524831533432007
      ],
      "type": "VEC3"
    },
    {
      "bufferView": 0,
      "componentType": 5125,
      "count": 3,
      "type": "SCALAR"
    },
    {
      "bufferView": 1,
      "byteOffset": 72,
      "componentType": 5126,
      "count": 57405,
      "max": [
        226.30850219726563,
        172.75709533691406,
        292.52178955078125
      ],
      "min": [
        -226.30850219726563,
        -172.75709533691406,
        -292.52178955078125
      ],
      "type": "VEC3"
    },
    {
      "bufferView": 1,
      "byteOffset": 688932,
      "componentType": 5126,
      "count": 57405,
      "max": [
        0.9999852180480957,
        0.9999964237213135,
        0.9999703168869019
      ],
      "min": [
        -0.9999769926071167,
        -0.999931812286377,
        -0.9999895095825195
      ],
      "type": "VEC3"
    },
    {
      "bufferView": 0,
      "byteOffset": 12,
      "componentType": 5125,
      "count": 344241,
      "type": "SCALAR"
    },
    {
      "bufferView": 1,
      "byteOffset": 1377792,
      "componentType": 5126,
      "count": 12783,
      "max": [
        43.66310119628906,
        89.18879699707031,
        27.449399948120117
      ],
      "min": [
        -51.542999267578125,
        -55.62120056152344,
        -64.30490112304688
      ],
      "type": "VEC3"
    },
    {
      "bufferView": 1,
      "byteOffset": 1531188,
      "componentType": 5126,
      "count": 12783,
      "max": [
        0.9960860013961792,
        0.9951214790344238,
        0.999653160572052
      ],
      "min": [
        -0.9960860013961792,
        -0.9951303005218506,
        -0.9996525645256042
      ],
      "type": "VEC3"
    },
    {
      "bufferView": 0,
      "byteOffset": 1376976,
      "componentType": 5125,
      "count": 13968,
      "type": "SCALAR"
    }
  ],
  "asset": {
    "extras": {
      "author": "Holoxica (https://sketchfab.com/holoxica)",
      "license": "CC-BY-4.0 (http://creativecommons.org/licenses/by/4.0/)",
      "source": "https://sketchfab.com/3d-models/gfp-green-fluorescent-protein-9643d8a3f1df45548cd588d2f7034065",
      "title": "GFP - Green Fluorescent Protein"
    },
    "generator": "Sketchfab-12.68.0",
    "version": "2.0"
  },
  "bufferViews": [
    {
      "buffer": 0,
      "byteLength": 1432848,
      "name": "floatBufferViews",
      "target": 34963
    },
    {
      "buffer": 0,
      "byteLength": 1684584,
      "byteOffset": 1432848,
      "byteStride": 12,
      "name": "floatBufferViews",
      "target": 34962
    }
  ],
  "buffers": [
    {
      "byteLength": 3117432,
      "uri": "scene.bin"
    }
  ],
  "extensionsRequired": [
    "KHR_materials_pbrSpecularGlossiness"
  ],
  "extensionsUsed": [
    "KHR_materials_pbrSpecularGlossiness"
  ],
  "materials": [
    {
      "doubleSided": true,
      "extensions": {
        "KHR_materials_pbrSpecularGlossiness": {
          "diffuseFactor": [
            0.054900000000000025,
            0.7882,
            0.0,
            1.0
          ],
          "glossinessFactor": 0.7437878695401279,
          "specularFactor": [
            0.013787888035629737,
            0.013787888035629737,
            0.013787888035629737
          ]
        }
      },
      "name": "Material__47"
    },
    {
      "doubleSided": true,
      "extensions": {
        "KHR_materials_pbrSpecularGlossiness": {
          "diffuseFactor": [
            0.0,
            0.05231887944077003,
            0.5463839916668516,
            1.0
          ],
          "glossinessFactor": 0.0,
          "specularFactor": [
            0.0,
            0.0,
            0.0
          ]
        }
      },
      "name": "Material__48"
    }
  ],
  "meshes": [
    {
      "name": "Object_0",
      "primitives": [
        {
          "attributes": {
            "NORMAL": 1,
            "POSITION": 0
          },
          "indices": 2,
          "material": 0,
          "mode": 4
        }
      ]
    },
    {
      "name": "Object_1",
      "primitives": [
        {
          "attributes": {
            "NORMAL": 4,
            "POSITION": 3
          },
          "indices": 5,
          "material": 0,
          "mode": 4
        }
      ]
    },
    {
      "name": "Object_2",
      "primitives": [
        {
          "attributes": {
            "NORMAL": 7,
            "POSITION": 6
          },
          "indices": 8,
          "material": 1,
          "mode": 4
        }
      ]
    }
  ],
  "nodes": [
    {
      "children": [
        1
      ],
      "matrix": [
        1.0,
        0.0,
        0.0,
        0.0,
        0.0,
        2.220446049250313e-16,
        -1.0,
        0.0,
        0.0,
        1.0,
        2.220446049250313e-16,
        0.0,
        0.0,
        0.0,
        0.0,
        1.0
      ],
      "name": "Sketchfab_model"
    },
    {
      "children": [
        2,
        3,
        4
      ],
      "name": "GFP.obj.cleaner.materialmerger.gles"
    },
    {
      "mesh": 0,
      "name": "Object_2"
    },
    {
      "mesh": 1,
      "name": "Object_3"
    },
    {
      "mesh": 2,
      "name": "Object_4"
    }
  ],
  "scene": 0,
  "scenes": [
    {
      "name": "Sketchfab_Scene",
      "nodes": [
        0
      ]
    }
  ]
}
